<svg width="31" height="20" viewBox="0 0 31 20" fill="none" xmlns="http://www.w3.org/2000/svg">
<path d="M25.6757 0.159912C25.8438 0.159912 26.0157 0.226162 26.1444 0.355537C26.4026 0.613037 26.4026 1.03491 26.1444 1.29304L17.3201 10.1174L26.0151 18.813C26.2732 19.0712 26.2732 19.4924 26.0151 19.7505C25.7569 20.0087 25.3357 20.0087 25.0776 19.7505L15.9094 10.5862C15.6519 10.328 15.6519 9.90616 15.9094 9.64866L25.2026 0.355537C25.3351 0.222412 25.5032 0.159912 25.6751 0.159912L25.6757 0.159912Z" fill="#999999"/>
<path d="M15.0875 0.159912C15.2557 0.159912 15.4275 0.226162 15.5563 0.355537C15.8144 0.613037 15.8144 1.03491 15.5563 1.29304L6.73192 10.1174L15.4269 18.813C15.685 19.0712 15.685 19.4924 15.4269 19.7505C15.1688 20.0087 14.7475 20.0087 14.4894 19.7505L5.3213 10.5862C5.0638 10.328 5.0638 9.90616 5.3213 9.64866L14.6144 0.355537C14.7469 0.222412 14.915 0.159912 15.0869 0.159912L15.0875 0.159912Z" fill="#999999"/>
</svg>
