<svg width="31" height="20" viewBox="0 0 31 20" fill="none" xmlns="http://www.w3.org/2000/svg">
<path d="M5.32432 0.159912C5.15619 0.159912 4.98432 0.226162 4.85557 0.355537C4.59744 0.613037 4.59744 1.03491 4.85557 1.29304L13.6799 10.1174L4.98494 18.813C4.72682 19.0712 4.72682 19.4924 4.98494 19.7505C5.24306 20.0087 5.66432 20.0087 5.92244 19.7505L15.0906 10.5862C15.3481 10.328 15.3481 9.90616 15.0906 9.64866L5.79744 0.355537C5.66494 0.222412 5.49682 0.159912 5.32494 0.159912L5.32432 0.159912Z" fill="#999999"/>
<path d="M15.9125 0.159912C15.7443 0.159912 15.5725 0.226162 15.4437 0.355537C15.1856 0.613037 15.1856 1.03491 15.4437 1.29304L24.2681 10.1174L15.5731 18.813C15.315 19.0712 15.315 19.4924 15.5731 19.7505C15.8312 20.0087 16.2525 20.0087 16.5106 19.7505L25.6787 10.5862C25.9362 10.328 25.9362 9.90616 25.6787 9.64866L16.3856 0.355537C16.2531 0.222412 16.085 0.159912 15.9131 0.159912L15.9125 0.159912Z" fill="#999999"/>
</svg>
