<svg width="106" height="100" viewBox="0 0 106 100" fill="none" xmlns="http://www.w3.org/2000/svg">
<g clip-path="url(#clip0_403_28)">
<path d="M105.386 52.6922C105.386 45.5798 103.993 38.6778 101.245 32.1813C98.5902 25.9069 94.7911 20.2718 89.9524 15.4332C85.1138 10.5946 79.4787 6.79539 73.2044 4.1409C66.7065 1.39286 59.8059 0 52.6922 0C45.5798 0 38.6791 1.39286 32.1813 4.1409C25.9069 6.79539 20.2718 10.5946 15.4332 15.4332C10.5946 20.2718 6.79539 25.9069 4.1409 32.1813C1.39286 38.6791 0 45.5798 0 52.6922C0 62.6813 2.80781 72.4027 8.11938 80.8066C13.2867 88.9832 20.5875 95.5811 29.2318 99.887C29.3774 99.9584 29.5398 99.9974 29.7048 99.9974C29.8256 99.9974 29.9439 99.9779 30.0582 99.9389C30.3272 99.8467 30.5545 99.6466 30.6793 99.388C30.7494 99.2425 30.7871 99.0814 30.7871 98.919V77.0646H74.5985V98.9177C74.5985 99.0814 74.6401 99.2542 74.7155 99.4049C74.8987 99.7713 75.2664 99.9987 75.6769 99.9987C75.8433 99.9987 76.0044 99.961 76.1538 99.8857C84.7968 95.5811 92.0976 88.9832 97.2663 80.8053C102.578 72.4027 105.386 62.6813 105.386 52.6922ZM52.6922 27.7324C54.506 27.7324 56.2666 28.7017 57.649 30.4636C59.0016 32.1878 59.8786 34.5265 60.1177 37.0511L60.1528 37.4227H45.2315L45.2666 37.0511C45.5057 34.5265 46.3827 32.1878 47.7353 30.4636C49.1178 28.7017 50.8783 27.7324 52.6922 27.7324ZM64.408 74.1827L69.057 62.7969C69.0868 62.7241 69.1011 62.6462 69.1024 62.5695V73.7618C69.1024 73.9541 69.1908 74.1256 69.3272 74.2399H64.3795C64.3898 74.2204 64.4002 74.2022 64.408 74.1827ZM63.4933 73.1381L61.4963 72.3221L65.6762 62.0849L67.6732 62.9008L63.4933 73.1381ZM70.3433 73.1407V62.0836H72.5014V73.1407H70.3433ZM73.7072 73.9645C73.7449 74.0723 73.8111 74.1684 73.8982 74.2399H73.5162C73.6032 74.1671 73.6695 74.0723 73.7072 73.9645ZM74.9143 73.1407V62.0836H77.0711V73.1407H74.9143ZM78.2197 74.0866C78.2561 74.1438 78.3003 74.1957 78.3522 74.2386H78.0885C78.1391 74.197 78.1846 74.1451 78.2197 74.0866ZM79.3683 73.1407V62.0836H81.5251V73.1407H79.3683ZM77.2491 96.8856L76.745 97.1649V77.0646H83.3221V74.2386H82.5412C82.6789 74.1243 82.766 73.9528 82.766 73.7605V61.4625C82.766 61.1208 82.4879 60.8414 82.1449 60.8414H78.7459C78.5237 60.8414 78.3275 60.9597 78.2184 61.1364C78.1093 60.9597 77.9144 60.8414 77.6909 60.8414H74.2919C74.0203 60.8414 73.7904 61.0168 73.7059 61.2598C73.6214 61.0168 73.3915 60.8414 73.1199 60.8414H69.7209C69.3792 60.8414 69.0998 61.1195 69.0998 61.4625V62.5487C69.0985 62.4721 69.083 62.3941 69.0518 62.3213C68.9881 62.168 68.8673 62.0498 68.7139 61.9874L65.567 60.7024C65.467 60.6621 65.3617 60.6478 65.2565 60.6608C65.0343 60.6894 64.8433 60.8349 64.7576 61.0428L60.1086 72.4287C60.0463 72.582 60.0463 72.7509 60.1112 72.9042C60.1749 73.0549 60.297 73.1771 60.449 73.2381L62.9034 74.2399H22.0636V77.0659H28.6407V97.1662L28.1365 96.8869C12.1057 87.9866 2.14646 71.0527 2.14646 52.6922C2.14646 25.1793 24.2412 2.73115 51.6189 2.15815V25.6639C47.1207 26.3227 43.5411 31.0743 43.0981 37.2304C43.0552 37.832 43.2657 38.431 43.6763 38.8727C44.0868 39.3145 44.6689 39.5679 45.2718 39.5679H60.1125C60.7154 39.5679 61.2975 39.3145 61.7081 38.8727C62.12 38.431 62.3304 37.832 62.2863 37.2304C61.8419 31.0743 58.2636 26.3227 53.7654 25.6639V2.15815C81.1431 2.73115 103.238 25.1793 103.238 52.6922C103.239 71.0527 93.28 87.9866 77.2491 96.8856Z" fill="#95B485"/>
<path d="M34.8162 62.4941H30.8391C32.4372 60.9557 33.2519 59.277 33.2636 57.4917C33.2883 53.7588 29.7814 51.0004 29.632 50.8848C29.6268 50.8809 29.6216 50.8783 29.6177 50.8757C29.6034 50.8653 29.5878 50.8549 29.5722 50.8458C29.5631 50.8406 29.554 50.8341 29.545 50.8302C29.5411 50.8276 29.5385 50.8263 29.5346 50.8237C29.5125 50.8133 29.4904 50.8042 29.4683 50.7964C29.467 50.7964 29.4657 50.7964 29.4644 50.7951C29.4384 50.786 29.4111 50.7795 29.3838 50.7743C29.3786 50.773 29.3721 50.7717 29.3669 50.7717C29.3384 50.7678 29.3098 50.7639 29.2812 50.7639C29.2526 50.7639 29.224 50.7665 29.1954 50.7717C29.1902 50.773 29.1837 50.773 29.1785 50.7743C29.1513 50.7795 29.1253 50.786 29.0993 50.7951C29.098 50.7951 29.0967 50.7951 29.0954 50.7964C29.0733 50.8042 29.0512 50.8133 29.0291 50.8237C29.0252 50.825 29.0213 50.8276 29.0187 50.8302C29.0096 50.8354 29.0005 50.8406 28.9914 50.8458C28.9759 50.8549 28.9603 50.8653 28.9447 50.8757C28.9408 50.8796 28.9356 50.8809 28.9304 50.8848C28.781 51.0004 25.2741 53.7601 25.2988 57.4917C25.3105 59.2783 26.1239 60.9557 27.7233 62.4941H23.7461C23.1225 62.4941 22.6144 63.0021 22.6144 63.6258V64.5353C22.6144 65.0992 23.0354 65.5812 23.5928 65.6566L24.1125 65.7268L25.6522 73.6538C25.7042 73.9228 25.9407 74.1177 26.2148 74.1177H32.3528C32.6269 74.1177 32.8621 73.9228 32.9154 73.6538L34.455 65.7268L34.9748 65.6566C35.5322 65.5812 35.9531 65.0992 35.9531 64.5353V63.6258C35.9492 63.0021 35.4412 62.4941 34.8162 62.4941ZM31.2133 54.4449C31.82 55.4752 32.1241 56.4978 32.1176 57.4839C32.1111 58.4506 31.7993 59.4043 31.1912 60.3164L29.8529 62.3252V52.1347L31.2133 54.4449ZM27.3686 60.3164C26.7631 59.4082 26.4513 58.4597 26.4422 57.4969C26.4331 56.5004 26.7371 55.47 27.3465 54.4371L28.7069 52.1282V62.3265L27.3686 60.3164ZM33.5637 64.7042H28.7069C28.5003 64.7042 28.3327 64.8718 28.3327 65.0784C28.3327 65.285 28.5003 65.4526 28.7069 65.4526H33.3376L31.8772 72.9717H26.6839L25.2235 65.4526H27.3205C27.5271 65.4526 27.6947 65.285 27.6947 65.0784C27.6947 64.8718 27.5271 64.7042 27.3205 64.7042H24.9987L24.2854 63.6388H34.277L33.5637 64.7042Z" fill="#95B485"/>
</g>
<defs>
<clipPath id="clip0_403_28">
<rect width="105.386" height="100" fill="white"/>
</clipPath>
</defs>
</svg>
