<svg width="100" height="100" viewBox="0 0 100 100" fill="none" xmlns="http://www.w3.org/2000/svg">
<g clip-path="url(#clip0_463_197)">
<path d="M89.8646 15.1546C89.8016 15.0451 89.7209 14.948 89.6238 14.8687C88.9836 14.1286 88.316 13.4063 87.6224 12.7045C79.5198 4.5171 68.4172 0 56.8988 0H43.0985C31.6758 0 20.658 4.44049 12.5732 12.5103C4.46512 20.6005 0 31.3666 0 42.8181V100H100V42.8181C100 32.5718 96.4227 22.8782 89.8646 15.1546ZM42.8181 2.05198H57.1819C68.7387 2.05198 79.186 6.88646 86.6115 14.6375H13.3885C20.814 6.88646 31.2613 2.05198 42.8181 2.05198ZM26.7661 86.2709H13.803C12.8865 86.2709 12.1436 85.528 12.1436 84.6115V84.2408H28.4254V84.6115C28.4254 85.5267 27.6826 86.2709 26.7661 86.2709ZM28.4254 88.3228V97.948H12.1436V88.3228H28.4254ZM41.104 97.948L50 90.0835L58.896 97.948H41.104ZM87.8564 88.3228V97.948H71.5746V88.3228H87.8564ZM87.8564 84.6101C87.8564 85.5267 87.1135 86.2695 86.197 86.2695H73.2339C72.3174 86.2695 71.5746 85.5267 71.5746 84.6101V84.2394H87.8564V84.6101ZM97.948 97.948H89.9083V88.3228V86.4378V84.6101V82.1874V63.275C89.9083 62.7127 89.4747 62.223 88.9138 62.2066C88.3324 62.1888 87.8564 62.6553 87.8564 63.2326V82.1874H69.5226V86.4364V88.3215V97.948H61.9945L51.5499 88.7141L61.9945 79.4802H71.156C73.0438 79.4802 74.58 77.9767 74.58 76.1286C74.58 74.2804 73.0438 72.777 71.156 72.777H57.1778C58.5595 71.4446 59.4227 69.5773 59.4227 67.5103V65.9822H57.7483C57.9056 65.487 57.9877 64.9685 57.9877 64.4391C57.9877 61.6197 55.6949 59.3269 52.8755 59.3269C52.5718 59.3269 52.275 59.3557 51.9863 59.4063C51.2517 58.2107 49.9412 57.4555 48.487 57.4555C46.2202 57.4555 44.3776 59.2996 44.3776 61.565C44.3776 61.632 44.3817 61.7004 44.3844 61.7674C43.0383 62.4432 42.1122 63.8358 42.1122 65.4419C42.1122 65.6238 42.1259 65.8044 42.1491 65.9822H40.6252V67.5103C40.6252 69.5773 41.487 71.4446 42.87 72.777H28.8454C26.9576 72.777 25.4213 74.2804 25.4213 76.1286C25.4213 77.9767 26.9576 79.4802 28.8454 79.4802H38.0068L48.4514 88.7141L38.0068 97.948H30.4788V88.3228V86.4378V82.1888H12.1436V63.2763C12.1436 62.7141 11.7114 62.2243 11.1491 62.2079C10.5677 62.1901 10.0917 62.6566 10.0917 63.2339V82.1888V84.6115V86.4378V88.3228V97.948H2.05198V42.8181C2.05198 32.8837 5.62517 23.7702 11.5527 16.6895H88.4473C94.3748 23.7702 97.948 32.8837 97.948 42.8181V97.948ZM42.7031 68.0342H57.3447C57.0807 70.6936 54.8304 72.777 52.104 72.777H47.9439C45.2161 72.777 42.9672 70.6936 42.7031 68.0342ZM44.2613 64.8358C44.4993 64.104 45.119 63.539 45.8769 63.4131C46.6019 63.2927 47.3119 63.5609 47.7743 64.093C47.7661 64.2079 47.7606 64.3228 47.7606 64.4391C47.7606 64.9685 47.8427 65.487 47.9986 65.9822H44.2367C44.1409 65.6238 44.13 65.2408 44.2613 64.8358ZM55.5171 65.9822H50.2326C49.9042 65.4227 49.7633 64.7729 49.8331 64.1081C49.9836 62.6813 51.1382 61.5349 52.5663 61.394C54.3926 61.2134 55.9371 62.6498 55.9371 64.4391C55.9357 64.9863 55.7907 65.5157 55.5171 65.9822ZM48.4049 61.9617C47.8208 61.5951 47.1464 61.3776 46.4419 61.3393C46.5554 60.3105 47.4282 59.5075 48.487 59.5075C49.0903 59.5075 49.6443 59.7674 50.0246 60.197C49.3557 60.6484 48.7989 61.2531 48.4049 61.9617ZM52.104 74.829H71.1546C71.9111 74.829 72.5267 75.4118 72.5267 76.1286C72.5267 76.8454 71.9111 77.4282 71.1546 77.4282H28.8454C28.0889 77.4282 27.4733 76.8454 27.4733 76.1286C27.4733 75.4118 28.0889 74.829 28.8454 74.829H47.9439H52.104ZM58.896 79.4802L50 87.3447L41.104 79.4802H58.896Z" fill="#95B485"/>
<path d="M37.4254 38.8509C37.9918 38.8509 38.4514 38.3912 38.4514 37.8249V33.5841C38.4514 33.0177 37.9918 32.5581 37.4254 32.5581C36.8591 32.5581 36.3995 33.0177 36.3995 33.5841V37.8249C36.3995 38.3912 36.8577 38.8509 37.4254 38.8509Z" fill="#95B485"/>
<path d="M55.3461 38.8509C55.9124 38.8509 56.3721 38.3912 56.3721 37.8249V33.5841C56.3721 33.0177 55.9124 32.5581 55.3461 32.5581C54.7798 32.5581 54.3201 33.0177 54.3201 33.5841V37.8249C54.3201 38.3912 54.7784 38.8509 55.3461 38.8509Z" fill="#95B485"/>
<path d="M57.9343 25.7183H42.0657H40.0137H22.093V45.6909H40.0137H42.0657H57.9343H59.9863H77.907V25.7183H59.9863H57.9343ZM40.0137 43.6389H26.881C25.3694 43.6389 24.145 42.4146 24.145 40.9029V27.7702H37.2777C38.7893 27.7702 40.0137 28.9946 40.0137 30.5062V43.6389ZM57.9343 43.6389H44.8016C43.29 43.6389 42.0657 42.4146 42.0657 40.9029V27.7702H55.1984C56.71 27.7702 57.9343 28.9946 57.9343 30.5062V43.6389ZM75.855 30.5062V43.6389H62.7223C61.2107 43.6389 59.9863 42.4146 59.9863 40.9029V27.7702H73.119C74.6306 27.7702 75.855 28.9946 75.855 30.5062Z" fill="#95B485"/>
<path d="M73.2668 38.8509C73.8331 38.8509 74.2928 38.3912 74.2928 37.8249V33.5841C74.2928 33.0177 73.8331 32.5581 73.2668 32.5581C72.7004 32.5581 72.2408 33.0177 72.2408 33.5841V37.8249C72.2408 38.3912 72.699 38.8509 73.2668 38.8509Z" fill="#95B485"/>
</g>
<defs>
<clipPath id="clip0_463_197">
<rect width="100" height="100" fill="white"/>
</clipPath>
</defs>
</svg>
