<svg width="108" height="100" viewBox="0 0 108 100" fill="none" xmlns="http://www.w3.org/2000/svg">
<g clip-path="url(#clip0_471_287)">
<path d="M13.3914 96.7741H5.45738C5.03257 96.7741 4.66811 96.4712 4.5912 96.0535L2.64347 85.412C2.59614 85.1552 2.66714 84.8902 2.83399 84.6902C3.00083 84.4902 3.24933 84.373 3.50965 84.373H15.3261C15.5865 84.373 15.835 84.489 16.0018 84.689C16.1698 84.889 16.2385 85.154 16.1923 85.4108L14.2576 96.0523C14.1819 96.47 13.8174 96.7741 13.3914 96.7741ZM6.18984 95.0145H12.6566L14.2718 86.1338H4.56516L6.18984 95.0145Z" fill="#95B485"/>
<path d="M17.1082 86.1342H1.72761C1.24127 86.1342 0.847229 85.7402 0.847229 85.2538V81.7749C0.847229 81.2886 1.24127 80.8945 1.72761 80.8945H17.1082C17.5946 80.8945 17.9886 81.2886 17.9886 81.7749V85.2538C17.9886 85.7402 17.5946 86.1342 17.1082 86.1342ZM2.60799 84.3735H16.229V82.6541H2.60799V84.3735Z" fill="#95B485"/>
<path d="M6.68686 75.5291C4.61607 75.5291 2.96654 74.9268 1.78442 73.7388C0.145542 72.1093 -0.378663 69.5274 0.270972 66.2745C0.340787 65.9254 0.614131 65.6521 0.963206 65.5834C1.85305 65.4071 2.70385 65.3184 3.4943 65.3184C5.5781 65.3184 7.23473 65.9171 8.41803 67.098C10.0593 68.7464 10.5835 71.3272 9.93266 74.5647C9.86285 74.9114 9.59187 75.1836 9.24398 75.2546C8.34467 75.4356 7.48322 75.5291 6.68686 75.5291ZM1.8921 67.2069C1.62112 68.9712 1.66372 71.1379 3.02689 72.4939C3.87059 73.3412 5.10004 73.7683 6.68449 73.7683C7.19331 73.7683 7.73763 73.7234 8.30917 73.6335C8.58133 71.8774 8.53755 69.7143 7.17083 68.3417C6.33186 67.5039 5.09294 67.0779 3.49193 67.0779C2.99139 67.0779 2.45417 67.1217 1.8921 67.2069Z" fill="#95B485"/>
<path d="M11.2876 75.5812C10.7231 75.5812 10.1161 75.5161 9.48302 75.3884C9.13513 75.3185 8.86415 75.0464 8.79315 74.6985C8.32693 72.378 8.71387 70.5226 9.91138 69.3346C11.0769 68.1643 12.9714 67.7714 15.2658 68.2317C15.6137 68.3015 15.8859 68.5737 15.9557 68.9228C16.4136 71.2196 16.0314 73.0714 14.8517 74.276C13.9902 75.1328 12.7596 75.5812 11.2876 75.5812ZM10.4214 73.7613C11.8425 73.9471 12.9371 73.6974 13.6045 73.0359C14.3985 72.2242 14.4671 70.9498 14.3275 69.8588C12.904 69.6754 11.8118 69.9215 11.155 70.5806C10.3457 71.384 10.2794 72.6644 10.4214 73.7613Z" fill="#95B485"/>
<path d="M9.41792 82.6539C8.93158 82.6539 8.53754 82.2598 8.53754 81.7735V65.0889C8.53754 64.6025 8.93158 64.2085 9.41792 64.2085C9.90425 64.2085 10.2983 64.6025 10.2983 65.0889V81.7747C10.2971 82.2598 9.90307 82.6539 9.41792 82.6539Z" fill="#95B485"/>
<path d="M10.5575 66.3029C10.1291 66.3029 9.66999 66.2532 9.19193 66.155C8.84404 66.0828 8.57306 65.8107 8.50443 65.4616C8.07134 63.2476 8.74346 62.0193 9.38244 61.3792C10.296 60.4621 11.742 60.1533 13.4826 60.5106C13.8281 60.5816 14.0979 60.8526 14.1677 61.1981C14.5215 62.9447 14.2174 64.3576 13.2909 65.2864C12.6354 65.9503 11.6887 66.3029 10.5575 66.3029ZM10.1457 64.522C11.0012 64.6049 11.652 64.4416 12.0437 64.0463C12.4401 63.6488 12.6081 62.9849 12.5324 62.1436C11.6769 62.0619 11.0272 62.2252 10.6296 62.6228C10.1599 63.0914 10.0853 63.8369 10.1457 64.522Z" fill="#95B485"/>
<path d="M93.7912 96.7742H32.1954C31.709 96.7742 31.315 96.3802 31.315 95.8938V4.20655C31.315 3.72021 31.709 3.32617 32.1954 3.32617H93.7912C94.2775 3.32617 94.6716 3.72021 94.6716 4.20655V95.895C94.6716 96.3814 94.2775 96.7742 93.7912 96.7742ZM33.0746 95.0146H92.9108V5.08575H33.0746V95.0146Z" fill="#95B485"/>
<path d="M88.3669 96.7742H37.6196C37.1333 96.7742 36.7393 96.3802 36.7393 95.8938V9.80714C36.7393 9.3208 37.1333 8.92676 37.6196 8.92676H88.3657C88.852 8.92676 89.2461 9.3208 89.2461 9.80714V95.895C89.2461 96.3813 88.852 96.7742 88.3669 96.7742ZM38.5 95.0146H87.4865V10.6863H38.5V95.0146Z" fill="#95B485"/>
<path d="M80.0885 96.7744H1.87434C1.388 96.7744 0.993958 96.3804 0.993958 95.8941C0.993958 95.4077 1.388 95.0137 1.87434 95.0137H80.0885C80.5748 95.0137 80.9689 95.4077 80.9689 95.8941C80.9689 96.3816 80.5748 96.7744 80.0885 96.7744Z" fill="#95B485"/>
<path d="M96.8713 100H55.0155C54.5291 100 54.1351 99.606 54.1351 99.1196C54.1351 98.6333 54.5291 98.2393 55.0155 98.2393H96.8713C97.3577 98.2393 97.7517 98.6333 97.7517 99.1196C97.7517 99.606 97.3577 100 96.8713 100Z" fill="#95B485"/>
<path d="M106.392 100H101.157C100.671 100 100.277 99.606 100.277 99.1196C100.277 98.6333 100.671 98.2393 101.157 98.2393H106.392C106.879 98.2393 107.273 98.6333 107.273 99.1196C107.273 99.606 106.879 100 106.392 100Z" fill="#95B485"/>
<path d="M37.0576 99.8985H17.2254C16.739 99.8985 16.345 99.5044 16.345 99.0181C16.345 98.5317 16.739 98.1377 17.2254 98.1377H37.0576C37.5439 98.1377 37.9379 98.5317 37.9379 99.0181C37.9368 99.5044 37.5427 99.8985 37.0576 99.8985Z" fill="#95B485"/>
<path d="M42.4321 59.4173C40.9542 59.4173 39.752 58.2162 39.752 56.7383C39.752 55.2603 40.9542 54.0581 42.4321 54.0581C43.9042 54.0581 45.1005 55.2603 45.1005 56.7383C45.1005 58.2162 43.9042 59.4173 42.4321 59.4173ZM42.4321 55.8189C41.934 55.8189 41.5127 56.2401 41.5127 56.7395C41.5127 57.2376 41.934 57.6577 42.4321 57.6577C42.9327 57.6577 43.3409 57.2459 43.3409 56.7395C43.3409 56.2318 42.9327 55.8189 42.4321 55.8189Z" fill="#95B485"/>
<path d="M32.1954 96.7743H26.9427C26.4564 96.7743 26.0623 96.3803 26.0623 95.8939V0.88038C26.0623 0.394041 26.4564 0 26.9427 0H88.5385C89.0248 0 89.4189 0.394041 89.4189 0.88038V4.20665C89.4189 4.69299 89.0248 5.08703 88.5385 5.08703H33.0746V95.8951C33.0746 96.3815 32.6805 96.7743 32.1954 96.7743ZM27.8219 95.0147H31.315V4.20665C31.315 3.72031 31.7091 3.32627 32.1954 3.32627H87.6581V1.75958H27.8219V95.0147Z" fill="#95B485"/>
<path d="M62.9933 65.5786C57.5737 65.5786 53.1139 61.398 52.6654 56.0909H48.3096C47.8233 56.0909 47.4293 55.6968 47.4293 55.2105V23.318C47.4293 22.8317 47.8233 22.4377 48.3096 22.4377H52.6654C53.1127 17.1305 57.5737 12.9487 62.9933 12.9487C68.4152 12.9487 72.8786 17.1305 73.3259 22.4377H77.6757C78.1621 22.4377 78.5561 22.8317 78.5561 23.318V55.2105C78.5561 55.6968 78.1621 56.0909 77.6757 56.0909H73.3259C72.8786 61.398 68.4152 65.5786 62.9933 65.5786ZM49.1912 54.3313H53.5091C53.9954 54.3313 54.3895 54.7253 54.3895 55.2117C54.3895 59.9579 58.2494 63.8191 62.9933 63.8191C67.7407 63.8191 71.603 59.9579 71.603 55.2117C71.603 54.7253 71.9971 54.3313 72.4834 54.3313H76.7965V24.1984H72.4834C71.9971 24.1984 71.603 23.8044 71.603 23.318C71.603 18.5718 67.7407 14.7095 62.9933 14.7095C58.2482 14.7095 54.3895 18.5718 54.3895 23.318C54.3895 23.8044 53.9954 24.1984 53.5091 24.1984H49.1912V54.3313Z" fill="#95B485"/>
<path d="M78.5147 87.9316H47.466C46.9796 87.9316 46.5856 87.5375 46.5856 87.0512V73.3213C46.5856 72.835 46.9796 72.4409 47.466 72.4409H78.5147C79.0011 72.4409 79.3951 72.835 79.3951 73.3213V87.0524C79.3951 87.5375 79.0011 87.9316 78.5147 87.9316ZM48.3463 86.172H77.6355V74.2017H48.3463V86.172Z" fill="#95B485"/>
</g>
<defs>
<clipPath id="clip0_471_287">
<rect width="107.273" height="100" fill="white"/>
</clipPath>
</defs>
</svg>
