<svg width="191" height="50" viewBox="0 0 191 50" fill="none" xmlns="../../../../www.w3.org/2000/svg.html">
<path d="M63.808 12.8001H68.128V38.0001H63.808V12.8001ZM84.0541 27.9201C84.0541 26.6961 83.8021 25.7721 83.2981 25.1481C82.7941 24.5241 82.0261 24.2121 80.9941 24.2121C80.2501 24.2121 79.6021 24.3681 79.0501 24.6801C78.4981 24.9681 78.0661 25.4001 77.7541 25.9761C77.4661 26.5281 77.3221 27.1761 77.3221 27.9201V38.0001H73.3981V21.4401H77.3221V23.9961C77.8501 23.0121 78.5221 22.2801 79.3381 21.8001C80.1781 21.3201 81.1621 21.0801 82.2901 21.0801C84.1621 21.0801 85.5901 21.6561 86.5741 22.8081C87.5581 23.9361 88.0501 25.4841 88.0501 27.4521V38.0001H84.0541V27.9201ZM90.7113 21.4401H100.107V24.8601H90.7113V21.4401ZM93.5193 15.6801H97.3353V38.0001H93.5193V15.6801ZM109.989 38.3601C108.309 38.3601 106.821 38.0001 105.525 37.2801C104.253 36.5601 103.269 35.5521 102.573 34.2561C101.877 32.9601 101.529 31.4481 101.529 29.7201C101.529 27.9681 101.877 26.4441 102.573 25.1481C103.293 23.8521 104.301 22.8561 105.597 22.1601C106.893 21.4401 108.417 21.0801 110.169 21.0801C111.921 21.0801 113.409 21.4161 114.633 22.0881C115.881 22.7601 116.829 23.7321 117.477 25.0041C118.125 26.2521 118.449 27.7641 118.449 29.5401C118.449 29.7321 118.437 29.9361 118.413 30.1521C118.413 30.3681 118.413 30.5241 118.413 30.6201H103.869V27.9201H115.065L113.877 29.5761C113.949 29.4321 114.021 29.2401 114.093 29.0001C114.189 28.7601 114.237 28.5561 114.237 28.3881C114.237 27.5001 114.057 26.7321 113.697 26.0841C113.361 25.4361 112.881 24.9321 112.257 24.5721C111.657 24.2121 110.949 24.0321 110.133 24.0321C109.149 24.0321 108.309 24.2481 107.613 24.6801C106.941 25.1121 106.413 25.7361 106.029 26.5521C105.669 27.3681 105.489 28.3761 105.489 29.5761C105.465 30.7521 105.633 31.7601 105.993 32.6001C106.377 33.4401 106.917 34.0761 107.613 34.5081C108.309 34.9401 109.161 35.1561 110.169 35.1561C111.249 35.1561 112.185 34.9401 112.977 34.5081C113.769 34.0761 114.417 33.4161 114.921 32.5281L118.305 33.8601C117.417 35.3481 116.289 36.4761 114.921 37.2441C113.553 37.9881 111.909 38.3601 109.989 38.3601ZM126.047 21.4401V38.0001H122.195V21.4401H126.047ZM130.979 25.5801C130.643 25.2921 130.307 25.0761 129.971 24.9321C129.659 24.7881 129.263 24.7161 128.783 24.7161C128.135 24.7161 127.607 24.8841 127.199 25.2201C126.791 25.5561 126.491 26.0241 126.299 26.6241C126.131 27.2001 126.047 27.8841 126.047 28.6761L124.751 27.9201C124.751 26.6001 124.991 25.4361 125.471 24.4281C125.975 23.3961 126.611 22.5801 127.379 21.9801C128.171 21.3561 128.987 21.0441 129.827 21.0441C130.427 21.0441 130.991 21.1401 131.519 21.3321C132.047 21.5241 132.503 21.8481 132.887 22.3041L130.979 25.5801ZM135.41 14.8521C135.41 14.1801 135.65 13.6161 136.13 13.1601C136.634 12.7041 137.21 12.4761 137.858 12.4761C138.554 12.4761 139.142 12.7041 139.622 13.1601C140.102 13.6161 140.342 14.1801 140.342 14.8521C140.342 15.5001 140.102 16.0641 139.622 16.5441C139.142 17.0001 138.554 17.2281 137.858 17.2281C137.21 17.2281 136.634 17.0001 136.13 16.5441C135.65 16.0641 135.41 15.5001 135.41 14.8521ZM135.95 21.4401H139.802V38.0001H135.95V21.4401ZM149.148 31.5201C149.148 32.6961 149.4 33.6081 149.904 34.2561C150.408 34.9041 151.188 35.2281 152.244 35.2281C152.964 35.2281 153.6 35.0721 154.152 34.7601C154.704 34.4481 155.136 34.0161 155.448 33.4641C155.76 32.9121 155.916 32.2641 155.916 31.5201V21.4401H159.804V38.0001H155.916V35.4441C155.388 36.4041 154.704 37.1361 153.864 37.6401C153.048 38.1201 152.064 38.3601 150.912 38.3601C149.064 38.3601 147.636 37.7841 146.628 36.6321C145.644 35.4801 145.152 33.9201 145.152 31.9521V21.4401H149.148V31.5201ZM188.493 27.4521V38.0001H184.569V27.9201C184.569 26.6721 184.341 25.7481 183.885 25.1481C183.453 24.5241 182.769 24.2121 181.833 24.2121C181.161 24.2121 180.573 24.3561 180.069 24.6441C179.589 24.9321 179.205 25.3521 178.917 25.9041C178.653 26.4561 178.521 27.1281 178.521 27.9201V38.0001H174.633V27.9201C174.633 26.6721 174.405 25.7481 173.949 25.1481C173.517 24.5241 172.821 24.2121 171.861 24.2121C171.213 24.2121 170.637 24.3561 170.133 24.6441C169.653 24.9321 169.269 25.3521 168.981 25.9041C168.717 26.4561 168.585 27.1281 168.585 27.9201V38.0001H164.769V21.4401H168.585V23.8521C169.089 22.9401 169.725 22.2561 170.493 21.8001C171.261 21.3201 172.185 21.0801 173.265 21.0801C174.465 21.0801 175.461 21.3321 176.253 21.8361C177.069 22.3401 177.657 23.0721 178.017 24.0321C178.617 23.0481 179.349 22.3161 180.213 21.8361C181.101 21.3321 182.097 21.0801 183.201 21.0801C184.401 21.0801 185.385 21.3321 186.153 21.8361C186.921 22.3161 187.497 23.0361 187.881 23.9961C188.289 24.9561 188.493 26.1081 188.493 27.4521Z" fill="white"/>
<mask id="mask0_2082_262" style="mask-type:luminance" maskUnits="userSpaceOnUse" x="0" y="0" width="50" height="50">
<path d="M49.7572 0H0V50H49.7572V0Z" fill="white"/>
</mask>
<g mask="url(#mask0_2082_262)">
<path d="M25.4852 3.16283C25.4852 2.81979 25.7614 2.53516 26.1128 2.53516H49.1299H49.7576V3.16283V49.2135V49.8412H49.1299H32.6136C32.304 49.8412 32.0531 49.6153 32.0028 49.3226L30.8316 44.6373C30.7478 44.3027 30.9572 43.9597 31.2918 43.8759C31.6264 43.8006 31.9694 44.0015 32.0447 44.3361L33.1072 48.5866H48.5023V3.7905H26.7401V19.4698L28.3969 22.3481L30.1455 25.3686L30.681 26.3055H29.6016H26.1125H22.6234H21.5359L22.0798 25.3686L23.8199 22.3481L25.4848 19.4698L25.4852 3.16283ZM22.3894 2.53552C22.7409 2.53552 23.0171 2.82016 23.0171 3.1632C23.0171 3.51468 22.7409 3.79087 22.3894 3.79087H3.71494V48.5866H18.4405L20.2644 41.7927L20.39 41.3241H20.8671H30.3049L32.6812 32.4636C32.7734 32.129 33.1164 31.9281 33.451 32.0203C33.7856 32.1041 33.978 32.4471 33.8943 32.7817L31.3928 42.1108L31.2672 42.5794H30.7904H21.3522L19.5618 49.2561C19.5368 49.5823 19.2691 49.8419 18.9341 49.8419H3.08727H2.45996V49.2143V3.16283V2.53552H3.08763H22.3894ZM27.3091 22.9754L26.1125 20.8923L24.9078 22.9754L23.7032 25.0505H26.1128H28.5141L27.3091 22.9754Z" fill="white"/>
<path fill-rule="evenodd" clip-rule="evenodd" d="M23.6444 50.0001C31.2165 50.0001 37.3911 43.8339 37.3911 36.2618C37.3911 28.6898 31.2165 22.5151 23.6444 22.5151C16.0723 22.5151 9.89807 28.6898 9.89807 36.2618C9.89807 43.8336 16.0727 50.0001 23.6444 50.0001Z" fill="white"/>
<path d="M23.0171 0.627672C23.0171 0.284638 23.3014 0 23.6444 0H46.6699H47.2976V0.627672V46.6703V47.298H46.6699H30.154C29.8444 47.298 29.5851 47.0805 29.5347 46.7794L28.3716 42.1025C28.2878 41.7595 28.4887 41.4249 28.8233 41.3411C29.1664 41.2574 29.501 41.4668 29.5847 41.8013L30.6388 46.0434H46.0419V1.25498H24.2721V16.9343L25.9288 19.8042L27.6774 22.8246L28.2214 23.77H27.1335H23.6444H20.1553H19.0674L19.6114 22.8246L21.3599 19.8042L23.0167 16.9343L23.0171 0.627672ZM19.9298 0C20.2728 0 20.5575 0.284638 20.5575 0.627672C20.5575 0.979154 20.2728 1.25534 19.9298 1.25534H1.25498V46.0426H15.9805L17.7959 39.2488L17.9215 38.7886H18.4067H27.8445L30.2124 29.9196C30.3045 29.5851 30.6476 29.3926 30.9822 29.4763C31.3168 29.5685 31.5177 29.9116 31.4255 30.2462L28.924 39.5753L28.8068 40.0439H28.3216H18.8838L17.0933 46.7122C17.0764 47.0383 16.8006 47.298 16.4741 47.298H0.627672H0V46.6703V0.627672V0H0.627672H19.9298ZM24.8494 20.4318L23.6448 18.3487L22.4401 20.4318L21.2435 22.515H23.6448H26.0544L24.8494 20.4318Z" fill="#171C17"/>
</g>
</svg>
