<svg width="60" height="60" viewBox="0 0 60 60" fill="none" xmlns="http://www.w3.org/2000/svg">
<path d="M30.5823 3.7952C30.5823 3.38356 30.9138 3.04199 31.3356 3.04199H58.9561H59.7093V3.7952V59.056V59.8092H58.9561H39.1365C38.7649 59.8092 38.4639 59.5382 38.4035 59.1869L36.998 53.5645C36.8976 53.163 37.1488 52.7514 37.5503 52.6509C37.9518 52.5606 38.3634 52.8016 38.4538 53.2032L39.7288 58.3037H58.2029V4.5484H32.0883V23.3636L34.0764 26.8176L36.1748 30.4421L36.8173 31.5664H35.522H31.3351H27.1482H25.8432L26.4959 30.4421L28.5841 26.8176L30.5819 23.3636V3.7952H30.5823ZM26.8674 3.04243C27.2892 3.04243 27.6206 3.384 27.6206 3.79564C27.6206 4.21742 27.2892 4.54885 26.8674 4.54885H4.45812V58.3037H22.1287L24.3174 50.1511L24.4681 49.5887H25.0406H36.366L39.2176 38.9561C39.3282 38.5546 39.7398 38.3136 40.1413 38.4242C40.5428 38.5247 40.7738 38.9363 40.6733 39.3378L37.6715 50.5328L37.5207 51.0951H36.9487H25.6228L23.4743 59.1072C23.4443 59.4985 23.123 59.8101 22.7211 59.8101H3.70491H2.95215V59.0569V3.7952V3.04243H3.70535H26.8674ZM32.771 27.5703L31.3351 25.0705L29.8895 27.5703L28.4439 30.0605H31.3356H34.217L32.771 27.5703Z" fill="#CCCCCC"/>
<path fill-rule="evenodd" clip-rule="evenodd" d="M28.3731 60C37.4596 60 44.8691 52.6006 44.8691 43.5141C44.8691 34.4276 37.4596 27.0181 28.3731 27.0181C19.2865 27.0181 11.8774 34.4276 11.8774 43.5141C11.8774 52.6002 19.287 60 28.3731 60Z" fill="#95B485"/>
<path d="M27.6205 0.753206C27.6205 0.341565 27.9616 0 28.3733 0H56.0039H56.7571V0.753206V56.0043V56.7576H56.0039H36.1848C35.8132 56.7576 35.5021 56.4966 35.4417 56.1352L34.0459 50.523C33.9454 50.1114 34.1865 49.7099 34.588 49.6094C34.9996 49.5089 35.4011 49.7601 35.5016 50.1616L36.7665 55.252H55.2503V1.50597H29.1265V20.3211L31.1146 23.765L33.2129 27.3896L33.8656 28.524H32.5602H28.3733H24.1863H22.8809L23.5336 27.3896L25.6319 23.765L27.6201 20.3211V0.753206H27.6205ZM23.9157 0C24.3274 0 24.6689 0.341565 24.6689 0.753206C24.6689 1.17498 24.3274 1.50641 23.9157 1.50641H1.50597V55.2511H19.1766L21.3551 47.0985L21.5058 46.5463H22.088H33.4134L36.2548 35.9036C36.3655 35.5021 36.7771 35.2711 37.1786 35.3716C37.5801 35.4822 37.8212 35.8939 37.7106 36.2954L34.7088 47.4903L34.5682 48.0527H33.986H22.6605L20.512 56.0546C20.4917 56.446 20.1607 56.7576 19.7689 56.7576H0.753206H0V56.0043V0.753206V0H0.753206H23.9157ZM29.8193 24.5182L28.3737 22.0184L26.9281 24.5182L25.4922 27.018H28.3737H31.2653L29.8193 24.5182Z" fill="#171C17"/>
</svg>
